<svg width="1979" height="996" xmlns="http://www.w3.org/2000/svg" xmlns:xlink="http://www.w3.org/1999/xlink" xml:space="preserve" overflow="hidden"><defs><clipPath id="clip0"><rect x="314" y="99" width="1979" height="996"/></clipPath><clipPath id="clip1"><rect x="436" y="266" width="1354" height="746"/></clipPath><clipPath id="clip2"><rect x="436" y="266" width="1354" height="746"/></clipPath><clipPath id="clip3"><rect x="436" y="266" width="1354" height="746"/></clipPath><clipPath id="clip4"><rect x="436" y="266" width="1354" height="746"/></clipPath><clipPath id="clip5"><rect x="436" y="266" width="1354" height="746"/></clipPath><clipPath id="clip6"><rect x="436" y="266" width="1354" height="746"/></clipPath><clipPath id="clip7"><rect x="436" y="266" width="1354" height="746"/></clipPath><clipPath id="clip8"><rect x="436" y="266" width="1354" height="746"/></clipPath><clipPath id="clip9"><rect x="436" y="266" width="1354" height="746"/></clipPath><clipPath id="clip10"><rect x="436" y="266" width="1354" height="746"/></clipPath><clipPath id="clip11"><rect x="436" y="266" width="1354" height="746"/></clipPath><clipPath id="clip12"><rect x="436" y="266" width="1354" height="746"/></clipPath><clipPath id="clip13"><rect x="436" y="266" width="1354" height="746"/></clipPath><clipPath id="clip14"><rect x="436" y="266" width="1354" height="746"/></clipPath><clipPath id="clip15"><rect x="436" y="266" width="1354" height="746"/></clipPath><clipPath id="clip16"><rect x="436" y="266" width="1354" height="746"/></clipPath><clipPath id="clip17"><rect x="436" y="266" width="1354" height="746"/></clipPath><clipPath id="clip18"><rect x="436" y="266" width="1354" height="746"/></clipPath><clipPath id="clip19"><rect x="436" y="266" width="1354" height="746"/></clipPath><clipPath id="clip20"><rect x="436" y="266" width="1354" height="746"/></clipPath><clipPath id="clip21"><rect x="314" y="98" width="1980" height="997"/></clipPath></defs><g clip-path="url(#clip0)" transform="translate(-314 -99)"><rect x="314" y="99" width="1979" height="996" fill="#FFFFFF"/><g><path d="M436.5 884.529 1786.5 884.529M436.5 761.525 1786.5 761.525M436.5 637.521 1786.5 637.521M436.5 514.517 1786.5 514.517M436.5 390.513 1786.5 390.513M436.5 266.5 1786.5 266.5" stroke="#D9D9D9" stroke-width="3.4375" stroke-linejoin="round" stroke-miterlimit="10" fill="none"/></g><g><path d="M436.5 266.5 436.5 1008.5M630.521 266.5 630.521 1008.5M824.527 266.5 824.527 1008.5M1018.53 266.5 1018.53 1008.5M1212.54 266.5 1212.54 1008.5M1406.55 266.5 1406.55 1008.5M1600.5 266.5 1600.5 1008.5" stroke="#D9D9D9" stroke-width="3.4375" stroke-linejoin="round" stroke-miterlimit="10" fill="none"/></g><g clip-path="url(#clip1)"><path d="M436 1009 485.016 994.033 533.018 965.032 582.019 965.032 630.021 950.031 679.022 950.031 727.024 935.031 776.026 935.031 824.027 935.031 873.029 935.031 921.03 935.031 970.032 935.031 1018.03 921 1067.04 921 1115.04 921 1164.04 921 1213.04 921 1261.04 921 1310.04 921 1358.04 921 1407.05 921 1455.05 921 1504.05 921 1552.05 921 1601.05 921 1649.05 921 1698.06 921 1746.06 921 1795.06 921 1843.06 921 1892 921 1892 1009 1843.06 1009 1795.06 1009 1746.06 1009 1698.06 1009 1649.05 1009 1601.05 1009 1552.05 1009 1504.05 1009 1455.05 1009 1407.05 1009 1358.04 1009 1310.04 1009 1261.04 1009 1213.04 1009 1164.04 1009 1115.04 1009 1067.04 1009 1018.03 1009 970.032 1009 921.03 1009 873.029 1009 824.027 1009 776.026 1009 727.024 1009 679.022 1009 630.021 1009 582.019 1009 533.018 1009 485.016 1009 436 1009Z" stroke="#FFFFFF" stroke-width="2.29167" stroke-linejoin="round" stroke-miterlimit="10" fill="#BFBFBF"/></g><g clip-path="url(#clip2)"><path d="M436 1009 485.016 994.033 533.018 965.032 582.019 965.032 630.021 950.031 679.022 933.031 727.024 918.03 776.026 918.03 824.027 918.03 873.029 918.03 921.03 918.03 970.032 918.03 1018.03 904 1067.04 904 1115.04 904 1164.04 904 1213.04 904 1261.04 904 1310.04 904 1358.04 904 1407.05 904 1455.05 904 1504.05 904 1552.05 904 1601.05 904 1649.05 904 1698.06 904.03 1746.06 904.03 1795.06 904.03 1843.06 904.03 1892 904.03 1892 921.03 1843.06 921.03 1795.06 921.03 1746.06 921.03 1698.06 921.03 1649.05 921.03 1601.05 921.03 1552.05 921.03 1504.05 921.03 1455.05 921.03 1407.05 921.03 1358.04 921.03 1310.04 921.03 1261.04 921.03 1213.04 921.03 1164.04 921.03 1115.04 921.03 1067.04 921.03 1018.03 921.03 970.032 935.031 921.03 935.031 873.029 935.031 824.027 935.031 776.026 935.031 727.024 935.031 679.022 950.031 630.021 950.031 582.019 965.032 533.018 965.032 485.016 994.033 436 1009Z" stroke="#FFFFFF" stroke-width="2.29167" stroke-linejoin="round" stroke-miterlimit="10" fill="#BFBFBF"/></g><g clip-path="url(#clip3)"><path d="M436 1009 485.016 994.033 533.018 965.032 582.019 965.032 630.021 950.031 679.022 933.031 727.024 903.03 776.026 889.029 824.027 889.029 873.029 889.029 921.03 874.029 970.032 874.029 1018.03 859.028 1067.04 859.028 1115.04 859.028 1164.04 859.028 1213.04 859.028 1261.04 859.028 1310.04 859.028 1358.04 859.028 1407.05 859.028 1455.05 859.028 1504.05 859.028 1552.05 859.028 1601.05 859.028 1649.05 859.028 1698.06 859 1746.06 859 1795.06 859 1843.06 859 1892 859 1892 904.03 1843.06 904.03 1795.06 904.03 1746.06 904.03 1698.06 904.03 1649.05 904.03 1601.05 904.03 1552.05 904.03 1504.05 904.03 1455.05 904.03 1407.05 904.03 1358.04 904.03 1310.04 904.03 1261.04 904.03 1213.04 904.03 1164.04 904.03 1115.04 904.03 1067.04 904.03 1018.03 904.03 970.032 918.03 921.03 918.03 873.029 918.03 824.027 918.03 776.026 918.03 727.024 918.03 679.022 933.031 630.021 950.031 582.019 965.032 533.018 965.032 485.016 994.033 436 1009Z" stroke="#FFFFFF" stroke-width="2.29167" stroke-linejoin="round" stroke-miterlimit="10" fill="#BFBFBF"/></g><g clip-path="url(#clip4)"><path d="M436 1009 485.016 994.033 533.018 965.032 582.019 965.032 630.021 950.031 679.022 933.031 727.024 903.03 776.026 874.029 824.027 859.028 873.029 859.028 921.03 830.027 970.032 830.027 1018.03 815.027 1067.04 815.027 1115.04 815.027 1164.04 815.027 1213.04 815.027 1261.04 815.027 1310.04 815.027 1358.04 815.027 1407.05 815.027 1455.05 815.027 1504.05 815.027 1552.05 815.027 1601.05 815.027 1649.05 815.027 1698.06 815 1746.06 815 1795.06 815 1843.06 815 1892 815 1892 859.028 1843.06 859.028 1795.06 859.028 1746.06 859.028 1698.06 859.028 1649.05 859.028 1601.05 859.028 1552.05 859.028 1504.05 859.028 1455.05 859.028 1407.05 859.028 1358.04 859.028 1310.04 859.028 1261.04 859.028 1213.04 859.028 1164.04 859.028 1115.04 859.028 1067.04 859.028 1018.03 859.028 970.032 874.029 921.03 874.029 873.029 889.029 824.027 889.029 776.026 889.029 727.024 903.03 679.022 933.031 630.021 950.031 582.019 965.032 533.018 965.032 485.016 994.033 436 1009Z" stroke="#FFFFFF" stroke-width="2.29167" stroke-linejoin="round" stroke-miterlimit="10" fill="#BFBFBF"/></g><g clip-path="url(#clip5)"><path d="M436 1009 485.016 994.033 533.018 965.032 582.019 965.032 630.021 950.031 679.022 933.031 727.024 903.03 776.026 874.029 824.027 855.028 873.029 851.028 921.03 822.027 970.032 822.027 1018.03 807.026 1067.04 807.026 1115.04 807.026 1164.04 807.026 1213.04 807.026 1261.04 807.026 1310.04 807.026 1358.04 807.026 1407.05 807.026 1455.05 807.026 1504.05 807.026 1552.05 807.026 1601.05 807.026 1649.05 807.026 1698.06 807 1746.06 807 1795.06 807 1843.06 807 1892 807 1892 815.027 1843.06 815.027 1795.06 815.027 1746.06 815.027 1698.06 815.027 1649.05 815.027 1601.05 815.027 1552.05 815.027 1504.05 815.027 1455.05 815.027 1407.05 815.027 1358.04 815.027 1310.04 815.027 1261.04 815.027 1213.04 815.027 1164.04 815.027 1115.04 815.027 1067.04 815.027 1018.03 815.027 970.032 830.027 921.03 830.027 873.029 859.028 824.027 859.028 776.026 874.029 727.024 903.03 679.022 933.031 630.021 950.031 582.019 965.032 533.018 965.032 485.016 994.033 436 1009Z" stroke="#FFFFFF" stroke-width="2.29167" stroke-linejoin="round" stroke-miterlimit="10" fill="#BFBFBF"/></g><g clip-path="url(#clip6)"><path d="M436 1009 485.016 994.033 533.018 965.032 582.019 965.032 630.021 950.031 679.022 933.031 727.024 903.03 776.026 874.029 824.027 823.027 873.029 802.026 921.03 773.025 970.032 773.025 1018.03 758.025 1067.04 758.025 1115.04 758.025 1164.04 758.025 1213.04 758.025 1261.04 758.025 1310.04 758.025 1358.04 758.025 1407.05 758.025 1455.05 758.025 1504.05 758.025 1552.05 758.025 1601.05 758.025 1649.05 758.025 1698.06 758 1746.06 758 1795.06 758 1843.06 758 1892 758 1892 807.026 1843.06 807.026 1795.06 807.026 1746.06 807.026 1698.06 807.026 1649.05 807.026 1601.05 807.026 1552.05 807.026 1504.05 807.026 1455.05 807.026 1407.05 807.026 1358.04 807.026 1310.04 807.026 1261.04 807.026 1213.04 807.026 1164.04 807.026 1115.04 807.026 1067.04 807.026 1018.03 807.026 970.032 822.027 921.03 822.027 873.029 851.028 824.027 855.028 776.026 874.029 727.024 903.03 679.022 933.031 630.021 950.031 582.019 965.032 533.018 965.032 485.016 994.033 436 1009Z" stroke="#FFFFFF" stroke-width="2.29167" stroke-linejoin="round" stroke-miterlimit="10" fill="#BFBFBF"/></g><g clip-path="url(#clip7)"><path d="M436 1009 485.016 994.033 533.018 965.032 582.019 965.032 630.021 950.031 679.022 933.031 727.024 903.03 776.026 874.029 824.027 823.027 873.029 802.026 921.03 773.025 970.032 773.025 1018.03 758.025 1067.04 726.024 1115.04 726.024 1164.04 726.024 1213.04 726.024 1261.04 726.024 1310.04 726.024 1358.04 726.024 1407.05 726.024 1455.05 726.024 1504.05 726.024 1552.05 726.024 1601.05 726.024 1649.05 726.024 1698.06 726 1746.06 726 1795.06 726 1843.06 726 1892 726 1892 758.025 1843.06 758.025 1795.06 758.025 1746.06 758.025 1698.06 758.025 1649.05 758.025 1601.05 758.025 1552.05 758.025 1504.05 758.025 1455.05 758.025 1407.05 758.025 1358.04 758.025 1310.04 758.025 1261.04 758.025 1213.04 758.025 1164.04 758.025 1115.04 758.025 1067.04 758.025 1018.03 758.025 970.032 773.025 921.03 773.025 873.029 802.026 824.027 823.027 776.026 874.029 727.024 903.03 679.022 933.031 630.021 950.031 582.019 965.032 533.018 965.032 485.016 994.033 436 1009Z" stroke="#FFFFFF" stroke-width="2.29167" stroke-linejoin="round" stroke-miterlimit="10" fill="#BFBFBF"/></g><g clip-path="url(#clip8)"><path d="M436 1009 485.016 994.033 533.018 965.032 582.019 965.032 630.021 950.031 679.022 933.031 727.024 903.03 776.026 874.029 824.027 823.027 873.029 802.026 921.03 773.025 970.032 773.025 1018.03 758.025 1067.04 726.024 1115.04 726.024 1164.04 726.024 1213.04 726.024 1261.04 721.024 1310.04 721.024 1358.04 721.024 1407.05 721.024 1455.05 721.024 1504.05 721.024 1552.05 721.024 1601.05 721.024 1649.05 721.024 1698.06 721 1746.06 721 1795.06 721 1843.06 721 1892 721 1892 726.024 1843.06 726.024 1795.06 726.024 1746.06 726.024 1698.06 726.024 1649.05 726.024 1601.05 726.024 1552.05 726.024 1504.05 726.024 1455.05 726.024 1407.05 726.024 1358.04 726.024 1310.04 726.024 1261.04 726.024 1213.04 726.024 1164.04 726.024 1115.04 726.024 1067.04 726.024 1018.03 758.025 970.032 773.025 921.03 773.025 873.029 802.026 824.027 823.027 776.026 874.029 727.024 903.03 679.022 933.031 630.021 950.031 582.019 965.032 533.018 965.032 485.016 994.033 436 1009Z" stroke="#FFFFFF" stroke-width="2.29167" stroke-linejoin="round" stroke-miterlimit="10" fill="#262626"/></g><g clip-path="url(#clip9)"><path d="M436 1009 485.016 994.033 533.018 965.032 582.019 965.032 630.021 950.031 679.022 933.031 727.024 903.03 776.026 874.029 824.027 823.027 873.029 802.026 921.03 773.025 970.032 773.025 1018.03 758.025 1067.04 726.024 1115.04 726.024 1164.04 726.024 1213.04 726.024 1261.04 721.024 1310.04 705.023 1358.04 689.023 1407.05 672.022 1455.05 656.022 1504.05 656.022 1552.05 656.022 1601.05 656.022 1649.05 656.022 1698.06 656 1746.06 656 1795.06 656 1843.06 656 1892 656 1892 721.024 1843.06 721.024 1795.06 721.024 1746.06 721.024 1698.06 721.024 1649.05 721.024 1601.05 721.024 1552.05 721.024 1504.05 721.024 1455.05 721.024 1407.05 721.024 1358.04 721.024 1310.04 721.024 1261.04 721.024 1213.04 726.024 1164.04 726.024 1115.04 726.024 1067.04 726.024 1018.03 758.025 970.032 773.025 921.03 773.025 873.029 802.026 824.027 823.027 776.026 874.029 727.024 903.03 679.022 933.031 630.021 950.031 582.019 965.032 533.018 965.032 485.016 994.033 436 1009Z" stroke="#FFFFFF" stroke-width="2.29167" stroke-linejoin="round" stroke-miterlimit="10" fill="#0096D7"/></g><g clip-path="url(#clip10)"><path d="M436 1009 485.016 994.033 533.018 965.032 582.019 965.032 630.021 950.031 679.022 933.031 727.024 903.03 776.026 874.029 824.027 823.027 873.029 802.026 921.03 773.025 970.032 773.025 1018.03 758.025 1067.04 726.024 1115.04 726.024 1164.04 726.024 1213.04 726.024 1261.04 721.024 1310.04 688.023 1358.04 656.021 1407.05 640.021 1455.05 624.02 1504.05 624.02 1552.05 624.02 1601.05 624.02 1649.05 624.02 1698.06 624 1746.06 624 1795.06 624 1843.06 624 1892 624 1892 656.021 1843.06 656.021 1795.06 656.021 1746.06 656.021 1698.06 656.021 1649.05 656.021 1601.05 656.021 1552.05 656.021 1504.05 656.021 1455.05 656.021 1407.05 672.022 1358.04 689.023 1310.04 705.023 1261.04 721.024 1213.04 726.024 1164.04 726.024 1115.04 726.024 1067.04 726.024 1018.03 758.025 970.032 773.025 921.03 773.025 873.029 802.026 824.027 823.027 776.026 874.029 727.024 903.03 679.022 933.031 630.021 950.031 582.019 965.032 533.018 965.032 485.016 994.033 436 1009Z" stroke="#FFFFFF" stroke-width="2.29167" stroke-linejoin="round" stroke-miterlimit="10" fill="#0096D7"/></g><g clip-path="url(#clip11)"><path d="M436 1009 485.016 994.033 533.018 965.032 582.019 965.032 630.021 950.031 679.022 933.031 727.024 903.03 776.026 874.029 824.027 823.027 873.029 802.026 921.03 773.025 970.032 773.025 1018.03 758.025 1067.04 726.024 1115.04 726.024 1164.04 726.024 1213.04 726.024 1261.04 721.024 1310.04 688.023 1358.04 633.021 1407.05 594.019 1455.05 578.019 1504.05 578.019 1552.05 578.019 1601.05 578.019 1649.05 578.019 1698.06 578 1746.06 578 1795.06 578 1843.06 578 1892 578 1892 624.02 1843.06 624.02 1795.06 624.02 1746.06 624.02 1698.06 624.02 1649.05 624.02 1601.05 624.02 1552.05 624.02 1504.05 624.02 1455.05 624.02 1407.05 640.021 1358.04 656.021 1310.04 688.023 1261.04 721.024 1213.04 726.024 1164.04 726.024 1115.04 726.024 1067.04 726.024 1018.03 758.025 970.032 773.025 921.03 773.025 873.029 802.026 824.027 823.027 776.026 874.029 727.024 903.03 679.022 933.031 630.021 950.031 582.019 965.032 533.018 965.032 485.016 994.033 436 1009Z" stroke="#FFFFFF" stroke-width="2.29167" stroke-linejoin="round" stroke-miterlimit="10" fill="#CC6600"/></g><g clip-path="url(#clip12)"><path d="M436 1009 485.016 994.033 533.018 965.032 582.019 965.032 630.021 950.031 679.022 933.031 727.024 903.03 776.026 874.029 824.027 823.027 873.029 802.026 921.03 773.025 970.032 773.025 1018.03 758.025 1067.04 726.024 1115.04 726.024 1164.04 726.024 1213.04 726.024 1261.04 721.024 1310.04 688.023 1358.04 633.021 1407.05 578.019 1455.05 545.018 1504.05 528.017 1552.05 528.017 1601.05 528.017 1649.05 528.017 1698.06 528 1746.06 528 1795.06 528 1843.06 528 1892 528 1892 578.019 1843.06 578.019 1795.06 578.019 1746.06 578.019 1698.06 578.019 1649.05 578.019 1601.05 578.019 1552.05 578.019 1504.05 578.019 1455.05 578.019 1407.05 594.019 1358.04 633.021 1310.04 688.023 1261.04 721.024 1213.04 726.024 1164.04 726.024 1115.04 726.024 1067.04 726.024 1018.03 758.025 970.032 773.025 921.03 773.025 873.029 802.026 824.027 823.027 776.026 874.029 727.024 903.03 679.022 933.031 630.021 950.031 582.019 965.032 533.018 965.032 485.016 994.033 436 1009Z" stroke="#FFFFFF" stroke-width="2.29167" stroke-linejoin="round" stroke-miterlimit="10" fill="#0096D7"/></g><g clip-path="url(#clip13)"><path d="M436 1009 485.016 994.033 533.018 965.032 582.019 965.032 630.021 950.031 679.022 933.031 727.024 903.03 776.026 874.029 824.027 823.027 873.029 802.026 921.03 773.025 970.032 773.025 1018.03 758.025 1067.04 726.024 1115.04 726.024 1164.04 726.024 1213.04 726.024 1261.04 721.024 1310.04 688.023 1358.04 633.021 1407.05 573.019 1455.05 540.018 1504.05 523.017 1552.05 523.017 1601.05 523.017 1649.05 523.017 1698.06 523 1746.06 523 1795.06 523 1843.06 523 1892 523 1892 528.017 1843.06 528.017 1795.06 528.017 1746.06 528.017 1698.06 528.017 1649.05 528.017 1601.05 528.017 1552.05 528.017 1504.05 528.017 1455.05 545.018 1407.05 578.019 1358.04 633.021 1310.04 688.023 1261.04 721.024 1213.04 726.024 1164.04 726.024 1115.04 726.024 1067.04 726.024 1018.03 758.025 970.032 773.025 921.03 773.025 873.029 802.026 824.027 823.027 776.026 874.029 727.024 903.03 679.022 933.031 630.021 950.031 582.019 965.032 533.018 965.032 485.016 994.033 436 1009Z" fill="#5D9732"/></g><g clip-path="url(#clip14)"><path d="M436 1009 485.016 994.033 533.018 965.032 582.019 965.032 630.021 950.031 679.022 933.031 727.024 903.03 776.026 874.029 824.027 823.027 873.029 802.026 921.03 773.025 970.032 773.025 1018.03 758.025 1067.04 726.024 1115.04 726.024 1164.04 726.024 1213.04 726.024 1261.04 721.024 1310.04 688.023 1358.04 633.021 1407.05 573.019 1455.05 530.017 1504.05 513.017 1552.05 513.017 1601.05 513.017 1649.05 513.017 1698.06 513 1746.06 513 1795.06 513 1843.06 513 1892 513 1892 523.017 1843.06 523.017 1795.06 523.017 1746.06 523.017 1698.06 523.017 1649.05 523.017 1601.05 523.017 1552.05 523.017 1504.05 523.017 1455.05 540.018 1407.05 573.019 1358.04 633.021 1310.04 688.023 1261.04 721.024 1213.04 726.024 1164.04 726.024 1115.04 726.024 1067.04 726.024 1018.03 758.025 970.032 773.025 921.03 773.025 873.029 802.026 824.027 823.027 776.026 874.029 727.024 903.03 679.022 933.031 630.021 950.031 582.019 965.032 533.018 965.032 485.016 994.033 436 1009Z" stroke="#FFFFFF" stroke-width="2.29167" stroke-linejoin="round" stroke-miterlimit="10" fill="#5D9732"/></g><g clip-path="url(#clip15)"><path d="M436 1009 485.016 994.033 533.018 965.032 582.019 965.032 630.021 950.031 679.022 933.031 727.024 903.03 776.026 874.029 824.027 823.027 873.029 802.026 921.03 773.025 970.032 773.025 1018.03 758.025 1067.04 726.024 1115.04 726.024 1164.04 726.024 1213.04 726.024 1261.04 721.024 1310.04 688.023 1358.04 633.021 1407.05 573.019 1455.05 530.017 1504.05 496.016 1552.05 478.016 1601.05 460.015 1649.05 460.015 1698.06 460 1746.06 460 1795.06 460 1843.06 460 1892 460 1892 513.017 1843.06 513.017 1795.06 513.017 1746.06 513.017 1698.06 513.017 1649.05 513.017 1601.05 513.017 1552.05 513.017 1504.05 513.017 1455.05 530.017 1407.05 573.019 1358.04 633.021 1310.04 688.023 1261.04 721.024 1213.04 726.024 1164.04 726.024 1115.04 726.024 1067.04 726.024 1018.03 758.025 970.032 773.025 921.03 773.025 873.029 802.026 824.027 823.027 776.026 874.029 727.024 903.03 679.022 933.031 630.021 950.031 582.019 965.032 533.018 965.032 485.016 994.033 436 1009Z" stroke="#FFFFFF" stroke-width="2.29167" stroke-linejoin="round" stroke-miterlimit="10" fill="#0096D7"/></g><g clip-path="url(#clip16)"><path d="M436 1009 485.016 994.033 533.018 965.032 582.019 965.032 630.021 950.031 679.022 933.031 727.024 903.03 776.026 874.029 824.027 823.027 873.029 802.026 921.03 773.025 970.032 773.025 1018.03 758.025 1067.04 726.024 1115.04 726.024 1164.04 726.024 1213.04 726.024 1261.04 721.024 1310.04 688.023 1358.04 633.021 1407.05 573.019 1455.05 530.017 1504.05 476.016 1552.05 458.015 1601.05 421.014 1649.05 421.014 1698.06 421 1746.06 421 1795.06 421 1843.06 421 1892 421 1892 460.015 1843.06 460.015 1795.06 460.015 1746.06 460.015 1698.06 460.015 1649.05 460.015 1601.05 460.015 1552.05 478.016 1504.05 496.016 1455.05 530.017 1407.05 573.019 1358.04 633.021 1310.04 688.023 1261.04 721.024 1213.04 726.024 1164.04 726.024 1115.04 726.024 1067.04 726.024 1018.03 758.025 970.032 773.025 921.03 773.025 873.029 802.026 824.027 823.027 776.026 874.029 727.024 903.03 679.022 933.031 630.021 950.031 582.019 965.032 533.018 965.032 485.016 994.033 436 1009Z" stroke="#FFFFFF" stroke-width="2.29167" stroke-linejoin="round" stroke-miterlimit="10" fill="#0096D7"/></g><g clip-path="url(#clip17)"><path d="M436.5 1008.5 484.516 993.533 533.518 964.532 581.519 964.532 630.521 949.531 678.522 932.531 727.524 903.53 775.526 874.529 824.527 822.527 872.529 802.526 921.53 772.526 969.532 772.526 1018.53 758.525 1066.54 725.524 1115.54 725.524 1164.54 725.524 1212.54 725.524 1261.54 720.524 1309.54 688.523 1358.54 633.521 1406.55 572.519 1455.55 530.518 1503.55 475.516 1552.55 432.514 1600.55 370.512 1649.55 370.512 1697.56 370.5 1746.56 370.5 1794.56 370.5 1843.56 370.5 1892.5 370.5 1892.5 420.514 1843.56 420.514 1794.56 420.514 1746.56 420.514 1697.56 420.514 1649.55 420.514 1600.55 420.514 1552.55 458.515 1503.55 475.516 1455.55 530.518 1406.55 572.519 1358.54 633.521 1309.54 688.523 1261.54 720.524 1212.54 725.524 1164.54 725.524 1115.54 725.524 1066.54 725.524 1018.53 758.525 969.532 772.526 921.53 772.526 872.529 802.526 824.527 822.527 775.526 874.529 727.524 903.53 678.522 932.531 630.521 949.531 581.519 964.532 533.518 964.532 484.516 993.533 436.5 1008.5Z" stroke="#FFFFFF" stroke-width="1.14583" stroke-linejoin="round" stroke-miterlimit="10" fill="#0096D7"/></g><g clip-path="url(#clip18)"><path d="M436 1009 485.016 994.033 533.018 965.032 582.019 965.032 630.021 950.031 679.022 933.031 727.024 903.03 776.026 874.029 824.027 823.027 873.029 802.026 921.03 773.025 970.032 773.025 1018.03 758.025 1067.04 726.024 1115.04 726.024 1164.04 726.024 1213.04 726.024 1261.04 721.024 1310.04 688.023 1358.04 633.021 1407.05 573.019 1455.05 530.017 1504.05 476.016 1552.05 426.014 1601.05 363.012 1649.05 363.012 1698.06 363 1746.06 363 1795.06 363 1843.06 363 1892 363 1892 370.012 1843.06 370.012 1795.06 370.012 1746.06 370.012 1698.06 370.012 1649.05 370.012 1601.05 370.012 1552.05 433.014 1504.05 476.016 1455.05 530.017 1407.05 573.019 1358.04 633.021 1310.04 688.023 1261.04 721.024 1213.04 726.024 1164.04 726.024 1115.04 726.024 1067.04 726.024 1018.03 758.025 970.032 773.025 921.03 773.025 873.029 802.026 824.027 823.027 776.026 874.029 727.024 903.03 679.022 933.031 630.021 950.031 582.019 965.032 533.018 965.032 485.016 994.033 436 1009Z" stroke="#FFFFFF" stroke-width="2.29167" stroke-linejoin="round" stroke-miterlimit="10" fill="#CC6600"/></g><g clip-path="url(#clip19)"><path d="M436.5 1008.5 484.516 993.533 533.518 964.532 581.519 964.532 630.521 949.531 678.522 932.531 727.524 903.53 775.526 874.529 824.527 822.527 872.529 802.526 921.53 772.526 969.532 772.526 1018.53 758.525 1066.54 725.524 1115.54 725.524 1164.54 725.524 1212.54 725.524 1261.54 720.524 1309.54 688.523 1358.54 633.521 1406.55 572.519 1455.55 530.518 1503.55 475.516 1552.55 426.514 1600.55 363.512 1649.55 353.512 1697.56 353.5 1746.56 353.5 1794.56 353.5 1843.56 353.5 1892.5 353.5 1892.5 363.512 1843.56 363.512 1794.56 363.512 1746.56 363.512 1697.56 363.512 1649.55 363.512 1600.55 363.512 1552.55 426.514 1503.55 475.516 1455.55 530.518 1406.55 572.519 1358.54 633.521 1309.54 688.523 1261.54 720.524 1212.54 725.524 1164.54 725.524 1115.54 725.524 1066.54 725.524 1018.53 758.525 969.532 772.526 921.53 772.526 872.529 802.526 824.527 822.527 775.526 874.529 727.524 903.53 678.522 932.531 630.521 949.531 581.519 964.532 533.518 964.532 484.516 993.533 436.5 1008.5Z" stroke="#FFFFFF" stroke-width="1.14583" stroke-linejoin="round" stroke-miterlimit="10" fill="#CC6600"/></g><g clip-path="url(#clip20)"><path d="M436 1009 485.016 994.033 533.018 965.032 582.019 965.032 630.021 950.031 679.022 933.031 727.024 903.03 776.026 874.029 824.027 823.027 873.029 802.026 921.03 773.025 970.032 773.025 1018.03 758.025 1067.04 726.024 1115.04 726.024 1164.04 726.024 1213.04 726.024 1261.04 721.024 1310.04 688.023 1358.04 633.021 1407.05 573.019 1455.05 530.017 1504.05 476.016 1552.05 426.014 1601.05 363.012 1649.05 354.012 1698.06 327.011 1746.06 300 1795.06 300 1843.06 300 1892 300 1892 353.012 1843.06 353.012 1795.06 353.012 1746.06 353.012 1698.06 353.012 1649.05 354.012 1601.05 363.012 1552.05 426.014 1504.05 476.016 1455.05 530.017 1407.05 573.019 1358.04 633.021 1310.04 688.023 1261.04 721.024 1213.04 726.024 1164.04 726.024 1115.04 726.024 1067.04 726.024 1018.03 758.025 970.032 773.025 921.03 773.025 873.029 802.026 824.027 823.027 776.026 874.029 727.024 903.03 679.022 933.031 630.021 950.031 582.019 965.032 533.018 965.032 485.016 994.033 436 1009Z" fill="#0096D7"/></g><g><path d="M0 0 0.000360892 742" stroke="#7F7F7F" stroke-width="3.4375" stroke-linecap="square" stroke-linejoin="round" stroke-miterlimit="10" stroke-dasharray="10.3125 3.4375" fill="none" fill-rule="evenodd" transform="matrix(1 0 0 -1 1366.5 1008.5)"/></g><g><path d="M436.5 1008.5 1786.5 1008.5" stroke="#262626" stroke-width="3.4375" stroke-linejoin="round" stroke-miterlimit="10" fill="none" fill-rule="evenodd"/></g><g><path d="M436.5 1008.5 436.5 1022.5M630.521 1008.5 630.521 1022.5M824.527 1008.5 824.527 1022.5M1018.53 1008.5 1018.53 1022.5M1212.54 1008.5 1212.54 1022.5M1406.55 1008.5 1406.55 1022.5M1600.5 1008.5 1600.5 1022.5" stroke="#262626" stroke-width="3.4375" stroke-linejoin="round" stroke-miterlimit="10" fill="none"/></g><g><text font-family="Arial,Arial_MSFontService,sans-serif" font-weight="400" font-size="46" transform="matrix(1 0 0 1 371.132 1024)">0</text></g><g><text font-family="Arial,Arial_MSFontService,sans-serif" font-weight="400" font-size="46" transform="matrix(1 0 0 1 371.132 900)">5</text></g><g><text font-family="Arial,Arial_MSFontService,sans-serif" font-weight="400" font-size="46" transform="matrix(1 0 0 1 345.648 776)">10</text></g><g><text font-family="Arial,Arial_MSFontService,sans-serif" font-weight="400" font-size="46" transform="matrix(1 0 0 1 345.648 653)">15</text></g><g><text font-family="Arial,Arial_MSFontService,sans-serif" font-weight="400" font-size="46" transform="matrix(1 0 0 1 345.648 529)">20</text></g><g><text font-family="Arial,Arial_MSFontService,sans-serif" font-weight="400" font-size="46" transform="matrix(1 0 0 1 345.648 405)">25</text></g><g><text font-family="Arial,Arial_MSFontService,sans-serif" font-weight="400" font-size="46" transform="matrix(1 0 0 1 345.648 282)">30</text></g><g><text font-family="Arial,Arial_MSFontService,sans-serif" font-weight="400" font-size="46" transform="matrix(1 0 0 1 385.092 1078)">2016</text></g><g><text font-family="Arial,Arial_MSFontService,sans-serif" font-weight="400" font-size="46" transform="matrix(1 0 0 1 579.226 1078)">2018</text></g><g><text font-family="Arial,Arial_MSFontService,sans-serif" font-weight="400" font-size="46" transform="matrix(1 0 0 1 773.36 1078)">2020</text></g><g><text font-family="Arial,Arial_MSFontService,sans-serif" font-weight="400" font-size="46" transform="matrix(1 0 0 1 967.494 1078)">2022</text></g><g><text font-family="Arial,Arial_MSFontService,sans-serif" font-weight="400" font-size="46" transform="matrix(1 0 0 1 1161.63 1078)">2024</text></g><g><text font-family="Arial,Arial_MSFontService,sans-serif" font-weight="400" font-size="46" transform="matrix(1 0 0 1 1355.76 1078)">2026</text></g><g><text font-family="Arial,Arial_MSFontService,sans-serif" font-weight="400" font-size="46" transform="matrix(1 0 0 1 1549.9 1078)">2028</text></g><g><rect x="930" y="274" width="355" height="293" fill="#FFFFFF" fill-opacity="0.8"/></g><g><text font-family="Arial,Arial_MSFontService,sans-serif" font-weight="400" font-size="41" transform="matrix(1 0 0 1 976.867 330)">projects under </text></g><g><text font-family="Arial,Arial_MSFontService,sans-serif" font-weight="400" font-size="41" transform="matrix(1 0 0 1 996.369 377)">construction</text></g><g><text fill="#CC6600" font-family="Arial,Arial_MSFontService,sans-serif" font-weight="700" font-size="41" transform="matrix(1 0 0 1 1033.04 425)">Canada</text></g><g><text fill="#5D9732" font-family="Arial,Arial_MSFontService,sans-serif" font-weight="700" font-size="41" transform="matrix(1 0 0 1 1037.64 472)">Mexico</text></g><g><text fill="#0096D7" font-family="Arial,Arial_MSFontService,sans-serif" font-weight="700" font-size="41" transform="matrix(1 0 0 1 975.767 519)">United States</text></g><g clip-path="url(#clip21)"><rect x="314" y="99" width="1936" height="140" fill="#FFFFFF"/></g><g><text font-family="Arial,Arial_MSFontService,sans-serif" font-weight="700" font-size="46" transform="matrix(1 0 0 1 347.403 158)">North America liquefied natural gas export capacity by project</text></g><g><text font-family="Arial,Arial_MSFontService,sans-serif" font-weight="700" font-size="46" transform="matrix(1 0 0 1 1715.16 158)">(2016‒2029)</text></g><g><text font-family="Arial,Arial_MSFontService,sans-serif" font-weight="400" font-size="46" transform="matrix(1 0 0 1 347.403 211)">billion cubic feet per day</text></g><g><text fill="#0096D7" font-family="Arial,Arial_MSFontService,sans-serif" font-weight="400" font-size="37" transform="matrix(1 0 0 1 1801.38 303)">Woodside Louisiana LNG</text></g><g><text fill="#CC6600" font-family="Arial,Arial_MSFontService,sans-serif" font-weight="400" font-size="37" transform="matrix(1 0 0 1 1801.38 345)">Cedar LNG</text></g><g><text fill="#CC6600" font-family="Arial,Arial_MSFontService,sans-serif" font-weight="400" font-size="37" transform="matrix(1 0 0 1 1801.38 387)">Woodfibre LNG</text></g><g><text fill="#0096D7" font-family="Arial,Arial_MSFontService,sans-serif" font-weight="400" font-size="37" transform="matrix(1 0 0 1 1801.38 429)">CP2 Phase 1</text></g><g><text fill="#0096D7" font-family="Arial,Arial_MSFontService,sans-serif" font-weight="400" font-size="37" transform="matrix(1 0 0 1 1801.38 471)">Port Arthur</text></g><g><text fill="#0096D7" font-family="Arial,Arial_MSFontService,sans-serif" font-weight="400" font-size="37" transform="matrix(1 0 0 1 1801.38 513)">Rio Grande</text></g><g><text fill="#5D9732" font-family="Arial,Arial_MSFontService,sans-serif" font-weight="400" font-size="37" transform="matrix(1 0 0 1 1801.38 555)">Energia Costa Azul</text></g><g><text fill="#5D9732" font-family="Arial,Arial_MSFontService,sans-serif" font-weight="400" font-size="37" transform="matrix(1 0 0 1 1801.38 598)">Fast</text></g><g><text fill="#5D9732" font-family="Arial,Arial_MSFontService,sans-serif" font-weight="400" font-size="37" transform="matrix(1 0 0 1 1882.89 598)">LNG Altamira FLNG2</text></g><g><text fill="#0096D7" font-family="Arial,Arial_MSFontService,sans-serif" font-weight="400" font-size="37" transform="matrix(1 0 0 1 1801.38 640)">Golden Pass</text></g><g><text fill="#CC6600" font-family="Arial,Arial_MSFontService,sans-serif" font-weight="400" font-size="37" transform="matrix(1 0 0 1 1801.38 682)">LNG Canada</text></g><g><text fill="#0096D7" font-family="Arial,Arial_MSFontService,sans-serif" font-weight="400" font-size="37" transform="matrix(1 0 0 1 1801.38 724)">Corpus Christi Stage III</text></g><g><text fill="#0096D7" font-family="Arial,Arial_MSFontService,sans-serif" font-weight="400" font-size="37" transform="matrix(1 0 0 1 1801.38 766)">Plaquemines</text></g><g><text font-family="Arial,Arial_MSFontService,sans-serif" font-weight="400" font-size="41" transform="matrix(1 0 0 1 1227.49 258)">history   forecast</text></g><g><rect x="441" y="561" width="546" height="167" fill="#FFFFFF"/></g><g><text fill="#A6A6A6" font-family="Arial,Arial_MSFontService,sans-serif" font-weight="700" font-size="41" transform="matrix(1 0 0 1 479.232 617)">existing export capacity</text></g><g><text fill="#A6A6A6" font-family="Arial,Arial_MSFontService,sans-serif" font-weight="400" font-size="41" transform="matrix(1 0 0 1 590.401 664)">United States</text></g><g><text fill="#262626" font-family="Arial,Arial_MSFontService,sans-serif" font-weight="400" font-size="41" transform="matrix(1 0 0 1 648.884 712)">Mexico</text></g><g><g><g><g><g><path d="M98.2099 66.8901C98.2099 54.1385 91.4985 51.6777 85.7939 51.2302 76.2861 50.5591 69.2391 56.3756 69.2391 56.3756L74.4964 61.7447C80.0892 57.2705 89.3733 58.1653 90.1563 63.9819 90.1563 63.9819 81.9907 65.8834 80.0892 66.219 74.3845 67.4494 70.5814 67.8968 67.6731 72.1474 65.1004 76.2861 65.7716 82.4382 69.5747 85.9057 74.8319 90.6037 85.7939 90.6037 91.2748 84.2279 91.2748 84.2279 91.946 87.8073 92.3934 88.9258L100.671 88.9258C97.2032 80.8722 98.0981 72.2592 98.2099 66.8901ZM90.1563 72.5948C89.7088 76.2861 87.1361 80.8722 80.3129 81.767 76.0624 82.3263 72.0355 79.5299 74.1608 75.7268 74.8319 74.4964 76.2861 73.6015 78.2995 73.2659 79.5299 73.0422 80.8722 72.9304 82.3263 72.7067 85.4583 72.2592 88.3666 71.5881 90.1563 70.917 90.1563 70.917 90.1563 72.1474 90.1563 72.5948Z" fill="#333333" transform="matrix(1 0 0 1.04023 2020.73 131.167)"/><path d="M44.7426 70.3577C44.8544 59.3957 38.8142 51.5658 27.8522 51.6777 17.114 51.5658 10.6264 59.8432 10.7382 70.4695 10.7382 76.1742 12.3042 80.6485 15.548 84.116 19.5749 88.7021 27.1811 90.1563 33.4451 88.5903 37.9193 87.4717 41.3869 84.4516 43.8477 80.6485L36.9126 76.8453C31.7672 85.4583 19.7986 82.55 19.3512 72.3711L44.7426 72.3711ZM19.9104 65.6597C21.812 57.1586 34.5636 56.7112 36.3533 65.6597Z" fill="#333333" transform="matrix(1 0 0 1.04023 2020.73 131.167)"/><path d="M92.9527 27.7404C78.6351 19.6867 55.5926 20.6934 12.8635 44.5188 10.5145 45.8611 10.5145 45.0781 11.0738 44.407 14.0939 40.8276 52.1251 9.61965 85.9057 12.5279 95.7491 13.4228 113.311 19.1274 116.219 38.143 119.127 57.1586 110.514 68.3443 107.941 68.9035 111.409 55.7045 109.172 36.9126 92.9527 27.7404Z" fill="#0096D7" transform="matrix(1 0 0 1.04023 2020.73 131.167)"/><path d="M51.4539 55.2571 51.4539 88.814 59.6195 88.814 59.6195 55.2571Z" fill="#333333" transform="matrix(1 0 0 1.04023 2020.73 131.167)"/><path d="M60.8499 44.8544C60.8499 47.7579 58.4961 50.1117 55.5926 50.1117 52.6891 50.1117 50.3354 47.7579 50.3354 44.8544 50.3354 41.9509 52.6891 39.5972 55.5926 39.5972 58.4961 39.5972 60.8499 41.9509 60.8499 44.8544Z" fill="#333333" transform="matrix(1 0 0 1.04023 2020.73 131.167)"/></g></g></g></g></g></g></svg>